HIERARCHY
ROOT hip
{
  OFFSET 90.1175 34.3601 -14.5952
  CHANNELS 6 Xposition Yposition Zposition Zrotation Xrotation Yrotation
  JOINT abdomen
  {
    OFFSET 0 20.6881 -0.73152
    CHANNELS 3 Zrotation Xrotation Yrotation
    JOINT chest
    {
      OFFSET 0 11.7043 -0.48768
      CHANNELS 3 Zrotation Xrotation Yrotation
      JOINT neck
      {
        OFFSET 0 22.1894 -2.19456
        CHANNELS 3 Zrotation Xrotation Yrotation
        JOINT head
        {
          OFFSET -0.24384 7.07133 1.2192
          CHANNELS 3 Zrotation Xrotation Yrotation
          JOINT leftEye
          {
            OFFSET 4.14528 8.04674 8.04672
            CHANNELS 3 Zrotation Xrotation Yrotation
            End Site
            {
              OFFSET 1 0 0
            }
          }
          JOINT rightEye
          {
            OFFSET -3.6576 8.04674 8.04672
            CHANNELS 3 Zrotation Xrotation Yrotation
            End Site
            {
              OFFSET 1 0 0
            }
          }
        }
      }
      JOINT rCollar
      {
        OFFSET -2.68224 19.2634 -4.8768
        CHANNELS 3 Zrotation Xrotation Yrotation
        JOINT rShldr
        {
          OFFSET -8.77824 -1.95073 1.46304
          CHANNELS 3 Zrotation Xrotation Yrotation
          JOINT rForeArm
          {
            OFFSET -28.1742 -1.7115 0.48768
            CHANNELS 3 Zrotation Xrotation Yrotation
            JOINT rHand
            {
              OFFSET -22.5879 0.773209 7.07136
              CHANNELS 3 Zrotation Xrotation Yrotation
              JOINT rThumb1
              {
                OFFSET -1.2192 -0.487915 3.41376
                CHANNELS 3 Zrotation Xrotation Yrotation
                JOINT rThumb2
                {
                  OFFSET -3.37035 -0.52449 3.41376
                  CHANNELS 3 Zrotation Xrotation Yrotation
                  End Site
                  {
                    OFFSET -1.78271 -1.18214 1.43049
                  }
                }
              }
              JOINT rIndex1
              {
                OFFSET -7.75947 0.938293 5.60832
                CHANNELS 3 Zrotation Xrotation Yrotation
                JOINT rIndex2
                {
                  OFFSET -2.54057 -0.884171 1.56538
                  CHANNELS 3 Zrotation Xrotation Yrotation
                  End Site
                  {
                    OFFSET -1.62519 -0.234802 1.16502
                  }
                }
              }
              JOINT rMid1
              {
                OFFSET -8.24714 1.18213 3.41376
                CHANNELS 3 Zrotation Xrotation Yrotation
                JOINT rMid2
                {
                  OFFSET -3.10165 -0.590103 1.0647
                  CHANNELS 3 Zrotation Xrotation Yrotation
                  End Site
                  {
                    OFFSET -2.48547 -0.328903 0.83742
                  }
                }
              }
              JOINT rRing1
              {
                OFFSET -8.82822 0.546677 1.51678
                CHANNELS 3 Zrotation Xrotation Yrotation
                JOINT rRing2
                {
                  OFFSET -2.60934 -0.819778 -0.0198488
                  CHANNELS 3 Zrotation Xrotation Yrotation
                  End Site
                  {
                    OFFSET -2.33842 -0.294052 0.168128
                  }
                }
              }
              JOINT rPinky1
              {
                OFFSET -8.27202 -0.0477905 -0.4584
                CHANNELS 3 Zrotation Xrotation Yrotation
                JOINT rPinky2
                {
                  OFFSET -1.82734 -0.647385 -0.700984
                  CHANNELS 3 Zrotation Xrotation Yrotation
                  End Site
                  {
                    OFFSET -1.69225 -0.51767 -0.607171
                  }
                }
              }
            }
          }
        }
      }
      JOINT lCollar
      {
        OFFSET 2.68224 19.2634 -4.8768
        CHANNELS 3 Zrotation Xrotation Yrotation
        JOINT lShldr
        {
          OFFSET 8.77824 -1.95073 1.46304
          CHANNELS 3 Zrotation Xrotation Yrotation
          JOINT lForeArm
          {
            OFFSET 28.1742 -1.7115 0.48768
            CHANNELS 3 Zrotation Xrotation Yrotation
            JOINT lHand
            {
              OFFSET 22.5879 0.773209 7.07136
              CHANNELS 3 Zrotation Xrotation Yrotation
              JOINT lThumb1
              {
                OFFSET 1.2192 -0.487915 3.41376
                CHANNELS 3 Zrotation Xrotation Yrotation
                JOINT lThumb2
                {
                  OFFSET 3.37035 -0.52449 3.41376
                  CHANNELS 3 Zrotation Xrotation Yrotation
                  End Site
                  {
                    OFFSET 1.78271 -1.18214 1.43049
                  }
                }
              }
              JOINT lIndex1
              {
                OFFSET 7.75947 0.938293 5.60832
                CHANNELS 3 Zrotation Xrotation Yrotation
                JOINT lIndex2
                {
                  OFFSET 2.54057 -0.884171 1.56538
                  CHANNELS 3 Zrotation Xrotation Yrotation
                  End Site
                  {
                    OFFSET 1.62519 -0.234802 1.16502
                  }
                }
              }
              JOINT lMid1
              {
                OFFSET 8.24714 1.18213 3.41376
                CHANNELS 3 Zrotation Xrotation Yrotation
                JOINT lMid2
                {
                  OFFSET 3.10165 -0.590103 1.0647
                  CHANNELS 3 Zrotation Xrotation Yrotation
                  End Site
                  {
                    OFFSET 2.48547 -0.328903 0.83742
                  }
                }
              }
              JOINT lRing1
              {
                OFFSET 8.82822 0.546677 1.51678
                CHANNELS 3 Zrotation Xrotation Yrotation
                JOINT lRing2
                {
                  OFFSET 2.60934 -0.819778 -0.0198488
                  CHANNELS 3 Zrotation Xrotation Yrotation
                  End Site
                  {
                    OFFSET 2.33842 -0.294052 0.168128
                  }
                }
              }
              JOINT lPinky1
              {
                OFFSET 8.27202 -0.0477905 -0.4584
                CHANNELS 3 Zrotation Xrotation Yrotation
                JOINT lPinky2
                {
                  OFFSET 1.82734 -0.647385 -0.700984
                  CHANNELS 3 Zrotation Xrotation Yrotation
                  End Site
                  {
                    OFFSET 1.69225 -0.51767 -0.607171
                  }
                }
              }
            }
          }
        }
      }
    }
  }
  JOINT rButtock
  {
    OFFSET -8.77824 4.35084 1.2192
    CHANNELS 3 Zrotation Xrotation Yrotation
    JOINT rThigh
    {
      OFFSET 0 -1.70687 -2.19456
      CHANNELS 3 Zrotation Xrotation Yrotation
      JOINT rShin
      {
        OFFSET 0 -36.8199 0.73152
        CHANNELS 3 Zrotation Xrotation Yrotation
        JOINT rFoot
        {
          OFFSET 0.73152 -45.1104 -5.12064
          CHANNELS 3 Zrotation Xrotation Yrotation
          End Site
          {
            OFFSET -1.1221 -3.69964 12.103
          }
        }
      }
    }
  }
  JOINT lButtock
  {
    OFFSET 8.77824 4.35084 1.2192
    CHANNELS 3 Zrotation Xrotation Yrotation
    JOINT lThigh
    {
      OFFSET 0 -1.70687 -2.19456
      CHANNELS 3 Zrotation Xrotation Yrotation
      JOINT lShin
      {
        OFFSET 0 -36.8199 0.73152
        CHANNELS 3 Zrotation Xrotation Yrotation
        JOINT lFoot
        {
          OFFSET -0.73152 -45.1104 -5.12064
          CHANNELS 3 Zrotation Xrotation Yrotation
          End Site
          {
            OFFSET 1.1221 -3.69964 12.103
          }
        }
      }
    }
  }
}
MOTION
Frames:	7
Frame Time:	0.00833333
62.7329 84.3981 83.8092 5.80487 12.0126 -4.23633 -2.38564 12.1197 0.885625 1.55293 -4.12447 0.19874 -0.702844 13.8005 -2.00415 3.18397 -46.3403 -2.85887 -0 0 0 -0 0 0 1.61766e-013 1.51369e-014 -2.44063e-014 68.1404 -10.8947 -20.3891 -5.59695 -1.86587 9.7674 -2.0701 37.2473 6.13436 -1.26341e-009 -6.60768e-010 -9.49715e-011 -2.18066e-009 -1.12579e-009 -1.27746e-010 -1.26341e-009 -6.60764e-010 -9.49877e-011 7.73091 5.47488 0.417314 -1.26342e-009 -6.60766e-010 -9.4969e-011 2.90554 0.965183 0.102902 -1.26341e-009 -6.60767e-010 -9.49729e-011 10.2786 0.731801 0.0259123 -1.26341e-009 -6.60766e-010 -9.49708e-011 2.22167 -0.733487 -0.20892 1.61715e-013 1.51281e-014 -2.46268e-014 -72.9676 28.1802 6.96687 3.02298 -0.87506 -5.22903 0.139836 10.5834 -1.50503 7.23904e-011 1.22775e-010 -1.53078e-009 1.11206e-010 2.14002e-010 -2.64507e-009 7.23845e-011 1.22774e-010 -1.53076e-009 -7.73091 5.47488 -0.417314 7.23916e-011 1.22773e-010 -1.53078e-009 -2.90554 0.965183 -0.102902 7.23875e-011 1.22773e-010 -1.53079e-009 -10.2786 0.731801 -0.0259123 7.23922e-011 1.22774e-010 -1.53081e-009 -2.22167 -0.733487 0.20892 -2.03217e-016 0 -3.88251e-019 -21.8571 -32.5169 -12.4161 -0.0315747 33.6678 1.10415 1.50491 -3.92321 -3.70132 2.03217e-016 0 3.88251e-019 2.60265 -32.8242 4.56158 0.174869 33.7065 -1.03913 -1.32819 -2.01099 0.882562 
62.8444 83.9396 83.1295 5.92865 13.1566 -4.90854 -2.26372 13.4819 1.24996 1.34573 -4.35505 0.272587 -0.561039 14.4077 -1.8957 3.02735 -49.2733 -2.66879 -0 0 0 -0 0 0 1.22439e-013 -3.83614e-014 5.01496e-014 65.5614 -14.475 -25.088 -5.46768 -1.81065 9.53699 -2.33552 39.1379 6.56579 -1.98539e-010 3.62179e-010 -1.06235e-010 -3.42785e-010 6.1101e-010 -1.83161e-010 -1.98536e-010 3.62183e-010 -1.06252e-010 7.73091 5.47488 0.417314 -1.98541e-010 3.62181e-010 -1.06233e-010 2.90554 0.965183 0.102902 -1.9853e-010 3.62181e-010 -1.06235e-010 10.2786 0.731801 0.0259123 -1.9854e-010 3.62182e-010 -1.06231e-010 2.22167 -0.733487 -0.20892 1.22431e-013 -3.83694e-014 4.99136e-014 -74.8399 27.9029 11.4805 3.06012 -0.887341 -5.29372 0.106263 9.28157 -1.31621 -3.09544e-010 -6.20402e-010 1.57916e-010 -5.38115e-010 -1.08065e-009 2.78517e-010 -3.0955e-010 -6.20406e-010 1.57941e-010 -7.73091 5.47488 -0.417314 -3.09543e-010 -6.20405e-010 1.57918e-010 -2.90554 0.965183 -0.102902 -3.09546e-010 -6.20407e-010 1.57916e-010 -10.2786 0.731801 -0.0259123 -3.09542e-010 -6.20405e-010 1.57898e-010 -2.22167 -0.733487 0.20892 -2.03217e-016 0 -3.88251e-019 -22.8747 -35.9444 -13.7333 -0.0847663 36.9208 1.25338 1.61844 -3.75353 -2.59067 2.03217e-016 0 3.88251e-019 3.18713 -36.2102 4.94271 0.210092 36.9969 -1.16118 -1.38439 -2.3341 0.704974 
62.9756 83.3974 82.4516 6.09703 14.317 -5.59409 -2.19548 14.6734 1.58789 1.14164 -4.54346 0.338247 -0.431729 15.0773 -1.79063 2.91558 -52.0341 -2.47207 -0 0 0 -0 0 0 6.13568e-014 -1.02098e-013 1.28007e-013 62.6713 -17.2364 -29.9326 -5.37956 -1.77397 9.37937 -2.56066 40.6 6.91744 8.50432e-010 1.59733e-009 1.2901e-011 1.4704e-009 2.71063e-009 -1.33882e-011 8.50438e-010 1.59734e-009 1.2884e-011 7.73091 5.47488 0.417314 8.50431e-010 1.59734e-009 1.2902e-011 2.90554 0.965183 0.102902 8.50443e-010 1.59734e-009 1.29015e-011 10.2786 0.731801 0.0259123 8.5043e-010 1.59734e-009 1.2909e-011 2.22167 -0.733487 -0.20892 6.13871e-014 -1.02104e-013 1.27762e-013 -76.758 27.4815 16.0537 3.12414 -0.909334 -5.40499 0.0795521 8.08017 -1.14313 -5.79238e-010 -1.44258e-009 1.83801e-009 -9.93942e-010 -2.51168e-009 3.18594e-009 -5.79245e-010 -1.44259e-009 1.83804e-009 -7.73091 5.47488 -0.417314 -5.79238e-010 -1.44258e-009 1.83802e-009 -2.90554 0.965183 -0.102902 -5.79239e-010 -1.44259e-009 1.83802e-009 -10.2786 0.731801 -0.0259123 -5.79236e-010 -1.44258e-009 1.838e-009 -2.22167 -0.733487 0.20892 -2.03217e-016 0 -3.88251e-019 -24.0706 -39.4621 -15.1189 -0.150734 40.2768 1.41626 1.72506 -3.70467 -1.49945 2.03217e-016 0 3.88251e-019 3.82649 -39.6311 5.3275 0.254297 40.2624 -1.29346 -1.44619 -2.66983 0.454563 
63.1241 82.7716 81.7811 6.32623 15.453 -6.23008 -2.22147 15.6936 1.87117 0.971011 -4.71421 0.387855 -0.30074 15.7018 -1.7091 2.80798 -54.4192 -2.32617 -0 0 0 -0 0 0 -1.35398e-014 -1.33581e-013 1.77415e-013 59.8434 -18.7964 -34.7761 -5.33056 -1.75358 9.29189 -2.66393 41.2281 7.07428 1.59717e-009 2.8706e-009 1.33469e-010 2.76208e-009 4.88278e-009 1.7054e-010 1.59718e-009 2.8706e-009 1.33453e-010 7.73091 5.47488 0.417314 1.59717e-009 2.8706e-009 1.33469e-010 2.90554 0.965183 0.102902 1.59718e-009 2.8706e-009 1.3347e-010 10.2786 0.731801 0.0259123 1.59717e-009 2.87061e-009 1.33478e-010 2.22167 -0.733487 -0.20892 -1.34958e-014 -1.33586e-013 1.77167e-013 -78.7194 26.954 20.6184 3.15339 -0.91949 -5.4558 0.0608604 7.02204 -0.991904 -6.69736e-010 -2.20854e-009 2.87503e-009 -1.14453e-009 -3.83978e-009 4.97989e-009 -6.69743e-010 -2.20854e-009 2.87507e-009 -7.73091 5.47488 -0.417314 -6.69737e-010 -2.20854e-009 2.87504e-009 -2.90554 0.965183 -0.102902 -6.69736e-010 -2.20855e-009 2.87504e-009 -10.2786 0.731801 -0.0259123 -6.69733e-010 -2.20854e-009 2.87503e-009 -2.22167 -0.733487 0.20892 -2.03217e-016 0 -3.88251e-019 -25.5381 -42.9382 -16.6304 -0.220521 43.6223 1.58448 1.82195 -3.8457 -0.548782 2.03217e-016 0 3.88251e-019 4.4841 -43.0211 5.70511 0.305207 43.448 -1.43315 -1.51312 -3.03053 0.0964623 
63.2816 82.0623 81.1235 6.6285 16.6305 -6.81492 -2.35545 16.4581 2.088 0.836486 -4.86707 0.418013 -0.152046 16.2797 -1.65783 2.64982 -56.3573 -2.27698 -0 0 0 -0 0 0 -1.27246e-013 -1.12461e-013 1.88824e-013 57.5551 -18.9591 -39.4289 -5.34105 -1.75791 9.31062 -2.58071 40.7214 6.94781 1.95057e-009 5.52867e-009 4.18063e-010 3.37914e-009 9.448e-009 6.5339e-010 1.95058e-009 5.52867e-009 4.18051e-010 7.73091 5.47488 0.417314 1.95057e-009 5.52867e-009 4.18061e-010 2.90554 0.965183 0.102902 1.95059e-009 5.52867e-009 4.18063e-010 10.2786 0.731801 0.0259123 1.95057e-009 5.52867e-009 4.18071e-010 2.22167 -0.733487 -0.20892 -1.27235e-013 -1.12464e-013 1.88582e-013 -80.7447 26.3169 25.219 3.14843 -0.917735 -5.44733 0.0493591 6.1931 -0.874126 -5.23045e-010 -2.69096e-009 2.95062e-009 -8.91985e-010 -4.66868e-009 5.109e-009 -5.23051e-010 -2.69097e-009 2.95065e-009 -7.73091 5.47488 -0.417314 -5.23046e-010 -2.69097e-009 2.95063e-009 -2.90554 0.965183 -0.102902 -5.23045e-010 -2.69097e-009 2.95063e-009 -10.2786 0.731801 -0.0259123 -5.23043e-010 -2.69096e-009 2.95061e-009 -2.22167 -0.733487 0.20892 -2.03217e-016 0 -3.88251e-019 -27.354 -46.4573 -18.3296 -0.292585 46.966 1.76009 1.92016 -4.16505 0.368591 2.03217e-016 0 3.88251e-019 5.15915 -46.471 6.06125 0.361829 46.5586 -1.5829 -1.59205 -3.39967 -0.409549 
63.4401 81.2687 80.485 6.99134 17.8456 -7.37848 -2.56531 16.9958 2.25222 0.723362 -4.99123 0.43332 0.00376388 16.8595 -1.62589 2.45503 -57.9626 -2.29809 -0 0 0 -0 0 0 -2.7496e-013 -6.44065e-014 1.79527e-013 55.9125 -18.142 -43.8384 -5.40528 -1.78518 9.42472 -2.36757 39.3606 6.61788 2.06826e-009 9.20002e-009 8.69805e-010 3.59343e-009 1.57618e-008 1.43403e-009 2.06827e-009 9.20002e-009 8.69797e-010 7.73091 5.47488 0.417314 2.06826e-009 9.20001e-009 8.69801e-010 2.90554 0.965183 0.102902 2.06827e-009 9.20002e-009 8.69803e-010 10.2786 0.731801 0.0259123 2.06826e-009 9.20002e-009 8.69808e-010 2.22167 -0.733487 -0.20892 -2.75011e-013 -6.44064e-014 1.79301e-013 -82.812 25.5426 29.8534 3.13646 -0.913668 -5.42675 0.0405424 5.5458 -0.782188 -1.88255e-010 -3.02571e-009 2.45288e-009 -3.186e-010 -5.23683e-009 4.24476e-009 -1.88259e-010 -3.02572e-009 2.4529e-009 -7.73091 5.47488 -0.417314 -1.88256e-010 -3.02573e-009 2.45288e-009 -2.90554 0.965183 -0.102902 -1.88254e-010 -3.02572e-009 2.45288e-009 -10.2786 0.731801 -0.0259123 -1.88254e-010 -3.02572e-009 2.45287e-009 -2.22167 -0.733487 0.20892 -2.03217e-016 0 -3.88251e-019 -29.5307 -50.0423 -20.2649 -0.376995 50.3552 1.9534 2.03091 -4.63604 1.27177 2.03217e-016 0 3.88251e-019 5.86394 -49.9811 6.41103 0.428559 49.617 -1.74712 -1.68511 -3.77693 -1.03488 
63.5997 80.3901 79.8714 7.38272 18.9548 -7.90062 -2.82461 17.4761 2.3745 0.636054 -5.09535 0.437919 0.142035 17.4078 -1.60701 2.28047 -59.3097 -2.34271 -0 0 0 -0 0 0 -4.04043e-013 -1.59541e-014 1.58043e-013 54.7095 -16.8985 -48.0572 -5.48195 -1.8178 9.56112 -2.11778 37.6128 6.21528 2.03701e-009 1.11332e-008 1.12052e-009 3.54554e-009 1.90863e-008 1.87259e-009 2.03701e-009 1.11332e-008 1.12051e-009 7.73091 5.47488 0.417314 2.03701e-009 1.11332e-008 1.12051e-009 2.90554 0.965183 0.102902 2.03702e-009 1.11332e-008 1.12051e-009 10.2786 0.731801 0.0259123 2.03701e-009 1.11332e-008 1.12051e-009 2.22167 -0.733487 -0.20892 -4.0415e-013 -1.59514e-014 1.57833e-013 -84.8707 24.65 34.394 3.09596 -0.900279 -5.35604 0.0314752 4.92277 -0.693708 2.40968e-010 -3.62236e-009 1.80704e-009 4.17077e-010 -6.25697e-009 3.12411e-009 2.40966e-010 -3.62237e-009 1.80706e-009 -7.73091 5.47488 -0.417314 2.40968e-010 -3.62238e-009 1.80705e-009 -2.90554 0.965183 -0.102902 2.40969e-010 -3.62237e-009 1.80704e-009 -10.2786 0.731801 -0.0259123 2.4097e-010 -3.62237e-009 1.80703e-009 -2.22167 -0.733487 0.20892 -2.03217e-016 0 -3.88251e-019 -32.0344 -53.4704 -22.437 -0.478092 53.7352 2.16537 2.14921 -5.30607 1.90735 2.03217e-016 0 3.88251e-019 6.57796 -53.3497 6.78043 0.508968 52.5951 -1.92387 -1.78569 -4.19888 -1.71127 
